<svg width="16.000000" height="16.000000" viewBox="0 0 16 16" fill="none" xmlns="http://www.w3.org/2000/svg" xmlns:xlink="http://www.w3.org/1999/xlink">
	<desc>
			Created with Pixso.
	</desc>
	<defs>
		<clipPath id="clip10_42">
			<rect id="instagram" rx="-0.500000" width="15.000000" height="15.000000" transform="translate(0.500000 0.500000)" fill="white" fill-opacity="0"/>
		</clipPath>
	</defs>
	<rect id="instagram" rx="-0.500000" width="15.000000" height="15.000000" transform="translate(0.500000 0.500000)" fill="#FFFFFF" fill-opacity="0"/>
	<g clip-path="url(#clip10_42)">
		<path id="Vector" d="M15.98 4.7C15.94 3.85 15.8 3.26 15.61 2.76C15.4 2.22 15.09 1.74 14.68 1.34C14.28 0.93 13.8 0.62 13.27 0.42C12.76 0.22 12.18 0.08 11.33 0.05C10.47 0 10.2 0 8.02 0C5.85 0 5.58 0 4.73 0.04C3.88 0.08 3.29 0.22 2.79 0.41C2.25 0.62 1.77 0.93 1.37 1.34C0.96 1.74 0.65 2.22 0.45 2.75C0.25 3.26 0.11 3.85 0.07 4.7C0.03 5.55 0.02 5.82 0.02 8C0.02 10.17 0.03 10.44 0.07 11.29C0.11 12.14 0.25 12.73 0.44 13.24C0.65 13.77 0.96 14.25 1.37 14.65C1.77 15.06 2.25 15.38 2.78 15.58C3.29 15.77 3.87 15.91 4.72 15.95C5.58 15.99 5.85 16 8.02 16C10.19 16 10.47 15.99 11.32 15.95C12.17 15.91 12.75 15.77 13.26 15.58C14.34 15.16 15.19 14.31 15.6 13.24C15.8 12.73 15.94 12.14 15.97 11.29C16.01 10.44 16.02 10.17 16.02 8C16.02 5.82 16.02 5.55 15.98 4.7ZM14.54 11.23C14.5 12.01 14.37 12.43 14.26 12.72C13.99 13.41 13.44 13.97 12.74 14.24C12.46 14.34 12.04 14.48 11.26 14.51C10.42 14.55 10.16 14.56 8.03 14.56C5.89 14.56 5.64 14.55 4.8 14.51C4.01 14.48 3.59 14.34 3.31 14.24C2.96 14.11 2.65 13.9 2.39 13.64C2.13 13.38 1.92 13.07 1.8 12.72C1.69 12.44 1.55 12.01 1.52 11.23C1.48 10.39 1.47 10.14 1.47 8C1.47 5.87 1.48 5.61 1.52 4.77C1.55 3.99 1.69 3.57 1.8 3.29C1.92 2.94 2.13 2.62 2.4 2.37C2.65 2.1 2.97 1.9 3.31 1.77C3.6 1.66 4.02 1.53 4.8 1.5C5.64 1.46 5.9 1.45 8.03 1.45C10.17 1.45 10.42 1.46 11.26 1.5C12.04 1.53 12.47 1.66 12.75 1.77C13.09 1.9 13.41 2.1 13.67 2.37C13.93 2.63 14.14 2.94 14.26 3.29C14.37 3.57 14.5 3.99 14.54 4.77C14.58 5.61 14.59 5.87 14.59 8C14.59 10.14 14.58 10.39 14.54 11.23Z" fill="#FFFFFF" fill-opacity="1.000000" fill-rule="nonzero"/>
		<path id="Vector" d="M8.02 3.89C5.76 3.89 3.91 5.73 3.91 8C3.91 10.27 5.76 12.11 8.02 12.11C10.29 12.11 12.13 10.27 12.13 8C12.13 5.73 10.29 3.89 8.02 3.89ZM8.02 10.66C6.55 10.66 5.36 9.47 5.36 8C5.36 6.52 6.55 5.33 8.02 5.33C9.5 5.33 10.69 6.52 10.69 8C10.69 9.47 9.5 10.66 8.02 10.66Z" fill="#FFFFFF" fill-opacity="1.000000" fill-rule="nonzero"/>
		<path id="Vector" d="M13.26 3.72C13.26 4.25 12.83 4.68 12.3 4.68C11.77 4.68 11.34 4.25 11.34 3.72C11.34 3.19 11.77 2.76 12.3 2.76C12.83 2.76 13.26 3.19 13.26 3.72Z" fill="#FFFFFF" fill-opacity="1.000000" fill-rule="nonzero"/>
	</g>
</svg>
