<svg width="14.000000" height="14.000000" viewBox="0 0 14 14" fill="none" xmlns="http://www.w3.org/2000/svg" xmlns:xlink="http://www.w3.org/1999/xlink">
	<desc>
			Created with Pixso.
	</desc>
	<defs/>
	<path id="Vector" d="M12.6 0L1.4 0C0.62 0 0 0.62 0 1.39L0 12.6C0 13.37 0.62 14 1.4 14L12.6 14C13.37 14 14 13.37 14 12.6L14 1.39C14 0.62 13.37 0 12.6 0ZM4.19 11.89L2.09 11.89L2.09 5.6L4.19 5.6L4.19 11.89ZM3.15 4.41C2.45 4.41 1.89 3.85 1.89 3.14C1.89 2.45 2.45 1.89 3.15 1.89C3.85 1.89 4.41 2.45 4.41 3.14C4.41 3.85 3.85 4.41 3.15 4.41ZM11.9 11.89L9.8 11.89L9.8 8.18C9.8 7.62 9.31 7.14 8.75 7.14C8.18 7.14 7.7 7.62 7.7 8.18L7.7 11.89L5.6 11.89L5.6 5.6L7.7 5.6L7.7 6.43C8.05 5.87 8.82 5.45 9.45 5.45C10.78 5.45 11.9 6.58 11.9 7.91L11.9 11.89Z" fill="#FFFFFF" fill-opacity="1.000000" fill-rule="nonzero"/>
</svg>
