<svg width="20.000000" height="16.250000" viewBox="0 0 20 16.25" fill="none" xmlns="http://www.w3.org/2000/svg" xmlns:xlink="http://www.w3.org/1999/xlink">
	<desc>
			Created with Pixso.
	</desc>
	<defs/>
	<path id="Vector" d="M20 1.92C19.25 2.25 18.46 2.46 17.63 2.57C18.48 2.06 19.13 1.26 19.44 0.3C18.64 0.77 17.77 1.11 16.84 1.29C16.08 0.49 15.01 0 13.84 0C11.57 0 9.74 1.84 9.74 4.1C9.74 4.42 9.77 4.73 9.84 5.03C6.43 4.87 3.41 3.23 1.39 0.74C1.03 1.36 0.83 2.06 0.83 2.81C0.83 4.24 1.56 5.49 2.65 6.22C1.99 6.21 1.34 6.02 0.8 5.72C0.8 5.73 0.8 5.75 0.8 5.76C0.8 7.75 2.22 9.41 4.08 9.79C3.75 9.88 3.38 9.93 3.01 9.93C2.74 9.93 2.48 9.91 2.23 9.86C2.76 11.48 4.27 12.67 6.06 12.71C4.67 13.8 2.89 14.46 0.98 14.46C0.64 14.46 0.32 14.45 0 14.41C1.81 15.58 3.96 16.25 6.29 16.25C13.83 16.25 17.95 10 17.95 4.58C17.95 4.4 17.95 4.22 17.94 4.05C18.75 3.47 19.44 2.75 20 1.92Z" fill="#FFFFFF" fill-opacity="1.000000" fill-rule="nonzero"/>
</svg>
